# xmcd
#
# Track frame offsets: 
#        150
#        11008
#        22466
#        40877
#        67917
#        86511
#        97841
#        106831
#        122221
#
# Disc length: 1913 seconds
#
# Revision: 0
# Processed by: cddbd v1.5.2PL0 Copyright (c) Steve Scherf et al.
# Submitted via: ExactAudioCopy v1.0b1
#
DISCID=6c077709
DTITLE=Pierce Arrow - Live at the Pierce Arrow Theater
DYEAR=2000
DGENRE=Country
TTITLE0=Here We Are
TTITLE1=Back At One
TTITLE2=Statler Brothers Medley
TTITLE3=You'll Never Walk Alone
TTITLE4=You Better Run
TTITLE5=Late A Letter Maria
TTITLE6=Sixteen Tons
TTITLE7=How Sweet It Is
TTITLE8=American Medley
EXTD=
EXTT0=
EXTT1=
EXTT2=
EXTT3=
EXTT4=
EXTT5=
EXTT6=
EXTT7=
EXTT8=
PLAYORDER=
